<?xml version="1.0" encoding="UTF-8"?>
<svg version="1.1" xmlns="http://www.w3.org/2000/svg" width="506" height="506">
<path d="M0 0 C3.85071411 3.47062012 7.63768202 7.00642171 11.39648438 10.57617188 C12.2240625 11.36121094 13.05164063 12.14625 13.90429688 12.95507812 C19.04616905 17.96258081 23.66394889 23.28043444 28.09521484 28.92431641 C29.01266312 30.08894212 29.9368122 31.24830449 30.86572266 32.40380859 C43.5284326 48.17000778 53.93116116 65.21401984 62.39648438 83.57617188 C62.72068359 84.26904297 63.04488281 84.96191406 63.37890625 85.67578125 C73.01480363 106.50660034 79.25174465 128.8602063 82.39648438 151.57617188 C82.57163574 152.82664307 82.74678711 154.07711426 82.92724609 155.36547852 C84.31982136 165.84570406 84.79710696 176.19713642 84.77148438 186.76367188 C84.77127289 187.57922546 84.7710614 188.39477905 84.77084351 189.23504639 C84.61790375 248.95693549 63.13104749 308.17520825 22.47460938 352.31445312 C20.58919503 354.36643603 18.76878405 356.45769142 16.95898438 358.57617188 C9.47950041 367.12169723 1.28104302 374.52758417 -7.60351562 381.57617188 C-8.39242188 382.23230469 -9.18132812 382.8884375 -9.99414062 383.56445312 C-17.15443158 389.47999151 -24.77153039 394.60354295 -32.60351562 399.57617188 C-33.25707031 399.99157227 -33.910625 400.40697266 -34.58398438 400.83496094 C-73.3419807 425.18244488 -118.71523303 437.08493368 -164.29101562 436.88867188 C-165.68072571 436.88494064 -165.68072571 436.88494064 -167.09851074 436.88113403 C-180.82088334 436.82420639 -194.13407957 436.40378815 -207.60351562 433.57617188 C-208.72516113 433.3504248 -209.84680664 433.12467773 -211.00244141 432.89208984 C-249.78064989 424.95215567 -285.3672964 410.13889197 -316.60351562 385.57617188 C-317.56128906 384.82980469 -318.5190625 384.0834375 -319.50585938 383.31445312 C-334.19972013 371.57201347 -348.03758393 358.41441596 -359.60351562 343.57617188 C-360.28003174 342.72224854 -360.28003174 342.72224854 -360.97021484 341.85107422 C-373.20532005 326.35935111 -383.35478321 309.50726295 -391.60351562 291.57617188 C-392.08981445 290.52888916 -392.08981445 290.52888916 -392.5859375 289.46044922 C-405.4423081 261.42328624 -413.52348759 229.94191138 -413.84179688 198.96679688 C-413.85150009 198.16993973 -413.86120331 197.37308258 -413.87120056 196.55207825 C-413.89605525 193.9767241 -413.90872824 191.40163397 -413.91601562 188.82617188 C-413.91863403 187.94267059 -413.92125244 187.05916931 -413.9239502 186.14889526 C-413.92906091 169.97732059 -412.59380744 154.49658237 -409.60351562 138.57617188 C-409.45930176 137.7738916 -409.31508789 136.97161133 -409.16650391 136.14501953 C-398.97953705 81.16009421 -365.57931864 27.96578613 -321.60351562 -6.42382812 C-320.81976563 -7.07480469 -320.03601563 -7.72578125 -319.22851562 -8.39648438 C-284.69130809 -36.96920706 -239.87143806 -54.90236852 -195.60351562 -60.42382812 C-194.85110596 -60.51809082 -194.09869629 -60.61235352 -193.32348633 -60.70947266 C-123.69438482 -68.21408419 -52.50634859 -46.62256775 0 0 Z M-43.60351562 60.57617188 C-62.26353561 81.44474495 -73.79610262 109.1157387 -72.88867188 137.44335938 C-70.51697246 163.4995639 -62.39252138 188.29626272 -43.97851562 207.51367188 C-40.62766156 211.1576424 -40.62766156 211.1576424 -40.41601562 214.82617188 C-41.61012652 217.59148132 -42.91572378 220.08117524 -44.60351562 222.57617188 C-48.21401867 221.22441349 -50.4119781 218.85068487 -53.01635742 216.08300781 C-72.03479236 195.87405627 -95.6118201 184.27952861 -121.60351562 175.57617188 C-122.80363281 175.17398438 -124.00375 174.77179688 -125.24023438 174.35742188 C-126.02011719 174.09960938 -126.8 173.84179688 -127.60351562 173.57617188 C-127.12914062 172.89554687 -126.65476562 172.21492188 -126.16601562 171.51367188 C-124.30293907 168.01108796 -123.74035274 165.54444811 -123.60351562 161.57617188 C-124.92534908 157.6106715 -126.18771951 154.13801896 -129.60351562 151.57617188 C-134.42801739 149.96800462 -138.79284943 149.77143134 -143.41601562 151.82617188 C-147.78589807 155.32207783 -148.93908815 158.0393882 -149.58789062 163.47851562 C-149.60632153 165.95286458 -149.15584982 168.17017067 -148.60351562 170.57617188 C-149.786875 170.56457031 -150.97023438 170.55296875 -152.18945312 170.54101562 C-160.40211934 170.4854425 -168.44226956 170.52310787 -176.60351562 171.57617188 C-176.42433594 170.92390625 -176.24515625 170.27164063 -176.06054688 169.59960938 C-174.67904066 163.93225068 -174.67904066 163.93225068 -175.60351562 158.26367188 C-178.43682959 154.45640624 -180.94301979 151.22070001 -185.74804688 150.05664062 C-190.3192807 149.72178023 -193.04477384 150.46568068 -196.60351562 153.38867188 C-199.69356468 156.28559286 -200.49722373 158.49199455 -200.91601562 162.76367188 C-200.53301319 167.43630159 -198.93011382 170.57733123 -196.60351562 174.57617188 C-197.22613281 174.69992188 -197.84875 174.82367188 -198.49023438 174.95117188 C-222.94407233 180.40809527 -244.15214434 191.93340028 -263.01098633 208.22070312 C-264.41760133 209.41793239 -265.86902938 210.56207427 -267.32617188 211.69726562 C-270.24135858 214.10241966 -272.47463254 216.85490621 -274.85742188 219.77148438 C-276.66207365 221.63669494 -278.23049279 222.56880551 -280.60351562 223.57617188 C-281.2978931 221.58562311 -281.9596178 219.58361802 -282.60351562 217.57617188 C-283.03277344 216.41408203 -283.03277344 216.41408203 -283.47070312 215.22851562 C-283.60351562 212.57617188 -283.60351562 212.57617188 -281.64648438 209.84179688 C-280.70440803 208.82744841 -279.75178489 207.82283284 -278.79101562 206.82617188 C-259.95293893 185.95343691 -250.52108842 157.39644904 -251.69384766 129.42138672 C-253.14350628 105.91124033 -262.93461913 79.68372354 -279.60351562 62.57617188 C-283.54989678 62.10683943 -283.54989678 62.10683943 -285.39257812 64.34960938 C-310.03250659 99.26491226 -320.63767378 140.2756818 -314.15039062 182.75927734 C-311.00671494 200.72265024 -305.25550266 220.88077232 -294.27148438 235.72851562 C-292.60351562 238.57617188 -292.60351562 238.57617188 -292.59570312 241.50585938 C-293.82188014 245.24142191 -295.67346953 248.38187052 -297.72851562 251.70117188 C-303.12558486 260.85666389 -306.47873313 270.4544102 -309.60351562 280.57617188 C-309.81878906 281.26098633 -310.0340625 281.94580078 -310.25585938 282.65136719 C-314.36369186 295.93470131 -316.1438696 309.6770668 -315.60351562 323.57617188 C-312.55369304 325.10108317 -309.38229023 324.71978622 -306.04101562 324.70117188 C-305.34298828 324.70503906 -304.64496094 324.70890625 -303.92578125 324.71289062 C-300.47602664 325.01539703 -300.47602664 325.01539703 -297.60351562 323.57617188 C-297.3645086 321.94949157 -297.18283753 320.3143234 -297.02539062 318.67773438 C-294.87489877 297.82532252 -291.50232244 276.4243821 -279.60351562 258.57617188 C-276.17162222 260.01681284 -274.38081318 261.77330424 -272.04101562 264.63867188 C-266.93857463 270.56131834 -260.96472712 275.56446734 -254.53320312 280.00585938 C-252.85351562 281.20117188 -252.85351562 281.20117188 -250.60351562 283.57617188 C-250.48359037 286.45437805 -250.76236509 287.88639106 -251.60351562 290.57617188 C-251.90386719 291.57390625 -252.20421875 292.57164062 -252.51367188 293.59960938 C-253.20648093 295.85980015 -253.90718392 298.11758433 -254.61523438 300.37304688 C-257.06190739 308.30297522 -257.88336535 315.25841613 -257.60351562 323.57617188 C-254.53818398 325.1088377 -251.33597291 324.67893658 -247.97851562 324.63867188 C-247.27210938 324.63416016 -246.56570312 324.62964844 -245.83789062 324.625 C-244.09306287 324.61321062 -242.34827863 324.59527512 -240.60351562 324.57617188 C-238.42424912 320.97721724 -238.11279235 317.59555788 -237.66601562 313.45117188 C-236.94156038 307.24944175 -235.68260235 301.46691759 -233.60351562 295.57617188 C-228.647069 296.15838199 -224.54498352 297.7988254 -220.04101562 299.82617188 C-185.85642255 314.49830351 -143.02484184 315.08846798 -108.28564453 301.68164062 C-104.75663193 300.21730754 -101.28343409 298.65484866 -97.82617188 297.02929688 C-95.35731946 295.91606888 -93.24268506 295.07887081 -90.60351562 294.57617188 C-88.26616025 303.41500605 -86.19051836 312.11442204 -84.99804688 321.19726562 C-84.84913839 323.52451182 -84.84913839 323.52451182 -83.60351562 324.57617188 C-80.90696709 324.64936809 -78.23660105 324.66859725 -75.54101562 324.63867188 C-74.4030957 324.6319043 -74.4030957 324.6319043 -73.2421875 324.625 C-71.36259691 324.61317868 -69.48304664 324.59524265 -67.60351562 324.57617188 C-64.17545198 311.38938692 -70.52677826 296.00197532 -74.60351562 283.57617188 C-73.7346875 282.91230469 -72.86585938 282.2484375 -71.97070312 281.56445312 C-70.80658993 280.67259221 -69.6425303 279.78066138 -68.47851562 278.88867188 C-67.62386719 278.23608398 -67.62386719 278.23608398 -66.75195312 277.5703125 C-60.67260455 272.90717581 -55.1765175 268.31485727 -50.31445312 262.34570312 C-48.52744782 260.49749901 -46.95362532 259.57676443 -44.60351562 258.57617188 C-33.97745094 277.88648232 -29.05820011 297.84896475 -26.97851562 319.70117188 C-27.03961837 323.35197155 -27.03961837 323.35197155 -25.60351562 324.57617188 C-23.11292648 324.6761483 -20.65624167 324.71496814 -18.16601562 324.70117188 C-17.47185547 324.70503906 -16.77769531 324.70890625 -16.0625 324.71289062 C-12.20581806 324.76977022 -12.20581806 324.76977022 -8.60351562 323.57617188 C-7.10079333 299.3099896 -14.87108656 272.94445609 -26.63867188 251.87695312 C-26.96746338 251.28785156 -27.29625488 250.69875 -27.63500977 250.09179688 C-28.5414153 248.49787577 -29.4776874 246.92104297 -30.41601562 245.34570312 C-31.84415453 242.01494495 -31.79864969 240.96490645 -30.60351562 237.57617188 C-29.42750052 234.92038071 -28.1274285 232.3419058 -26.79101562 229.76367188 C-26.44748047 229.09013672 -26.10394531 228.41660156 -25.75 227.72265625 C-25.40646484 227.04912109 -25.06292969 226.37558594 -24.70898438 225.68164062 C-24.18546387 224.6528479 -24.18546387 224.6528479 -23.65136719 223.60327148 C-22.98336834 222.31100811 -22.29935428 221.02681173 -21.59472656 219.75415039 C-13.56988325 204.83652582 -9.17958571 185.48899864 -8.60351562 168.57617188 C-8.57322266 167.69123047 -8.54292969 166.80628906 -8.51171875 165.89453125 C-7.47862936 128.52693219 -17.57393178 92.41417874 -40.60351562 62.57617188 C-41.59351563 61.91617188 -42.58351563 61.25617188 -43.60351562 60.57617188 Z " fill="#000000" transform="translate(415.603515625,63.423828125)"/>
</svg>
